<?xml version="1.0" encoding="UTF-8" standalone="no"?>
<!-- Created with Inkscape (http://www.inkscape.org/) -->

<svg
   xmlns:dc="http://purl.org/dc/elements/1.1/"
   xmlns:cc="http://creativecommons.org/ns#"
   xmlns:rdf="http://www.w3.org/1999/02/22-rdf-syntax-ns#"
   xmlns:svg="http://www.w3.org/2000/svg"
   xmlns="http://www.w3.org/2000/svg"
   xmlns:xlink="http://www.w3.org/1999/xlink"
   xmlns:sodipodi="http://sodipodi.sourceforge.net/DTD/sodipodi-0.dtd"
   xmlns:inkscape="http://www.inkscape.org/namespaces/inkscape"
   version="1.0"
   width="604.97601"
   height="345.37701"
   id="svg1939"
   sodipodi:version="0.32"
   inkscape:version="0.48.0 r9654"
   sodipodi:docname="Wikinews-waves.svg"
   inkscape:output_extension="org.inkscape.output.svg.inkscape">
  <metadata
     id="metadata42">
    <rdf:RDF>
      <cc:Work
         rdf:about="">
        <dc:format>image/svg+xml</dc:format>
        <dc:type
           rdf:resource="http://purl.org/dc/dcmitype/StillImage" />
        <dc:title></dc:title>
      </cc:Work>
    </rdf:RDF>
  </metadata>
  <sodipodi:namedview
     inkscape:window-height="823"
     inkscape:window-width="1440"
     inkscape:pageshadow="2"
     inkscape:pageopacity="0.0"
     guidetolerance="10.0"
     gridtolerance="10.0"
     objecttolerance="10.0"
     borderopacity="1.0"
     bordercolor="#666666"
     pagecolor="#ffffff"
     id="base"
     showgrid="false"
     inkscape:zoom="1.2716739"
     inkscape:cx="301.40764"
     inkscape:cy="172.68851"
     inkscape:window-x="0"
     inkscape:window-y="24"
     inkscape:current-layer="svg1939"
     inkscape:window-maximized="1" />
  <defs
     id="defs1941">
    <inkscape:perspective
       sodipodi:type="inkscape:persp3d"
       inkscape:vp_x="0 : 172.68851 : 1"
       inkscape:vp_y="0 : 1000 : 0"
       inkscape:vp_z="604.97601 : 172.68851 : 1"
       inkscape:persp3d-origin="302.48801 : 115.12567 : 1"
       id="perspective44" />
    <linearGradient
       id="linearGradient9171">
      <stop
         style="stop-color:#b0ddff;stop-opacity:1"
         offset="0"
         id="stop9173" />
      <stop
         style="stop-color:#cae8ff;stop-opacity:1"
         offset="0.5"
         id="stop9179" />
      <stop
         style="stop-color:#b0ddff;stop-opacity:1"
         offset="1"
         id="stop9175" />
    </linearGradient>
    <linearGradient
       x1="258.18005"
       y1="174.32866"
       x2="374.4324"
       y2="174.32866"
       id="linearGradient9177"
       xlink:href="#linearGradient9171"
       gradientUnits="userSpaceOnUse"
       gradientTransform="matrix(0,-1,1,0,128.1595,487.3718)" />
    <linearGradient
       id="linearGradient8262">
      <stop
         style="stop-color:#7dc1f3;stop-opacity:1"
         offset="0"
         id="stop8264" />
      <stop
         style="stop-color:#adf;stop-opacity:1"
         offset="0.5"
         id="stop8268" />
      <stop
         style="stop-color:#7dc1f3;stop-opacity:1"
         offset="1"
         id="stop8266" />
    </linearGradient>
    <linearGradient
       x1="239.05807"
       y1="175.02803"
       x2="393.35095"
       y2="175.02803"
       id="linearGradient7375"
       xlink:href="#linearGradient8262"
       gradientUnits="userSpaceOnUse"
       gradientTransform="matrix(0,-1,1,0,127.3584,487.9698)" />
    <linearGradient
       id="linearGradient5571">
      <stop
         style="stop-color:#4b9fdb;stop-opacity:1"
         offset="0"
         id="stop5573" />
      <stop
         style="stop-color:#7ec9fd;stop-opacity:1"
         offset="0.5"
         id="stop5579" />
      <stop
         style="stop-color:#4b9fdb;stop-opacity:1"
         offset="1"
         id="stop5575" />
    </linearGradient>
    <linearGradient
       x1="223.06319"
       y1="173.16895"
       x2="410.07242"
       y2="173.16895"
       id="linearGradient5577"
       xlink:href="#linearGradient5571"
       gradientUnits="userSpaceOnUse"
       gradientTransform="matrix(0,-1,1,0,129.5808,486.4738)" />
    <linearGradient
       id="linearGradient18934">
      <stop
         style="stop-color:#eee;stop-opacity:1"
         offset="0"
         id="stop18936" />
      <stop
         style="stop-color:#d5e1fd;stop-opacity:1"
         offset="1"
         id="stop18938" />
    </linearGradient>
    <radialGradient
       cx="318.60364"
       cy="175.1584"
       r="164.73401"
       fx="318.60364"
       fy="175.1584"
       id="radialGradient18940"
       xlink:href="#linearGradient18934"
       gradientUnits="userSpaceOnUse"
       gradientTransform="matrix(1,0,0,1.014494,-13.81818,-5.80099)" />
    <linearGradient
       id="linearGradient15386">
      <stop
         style="stop-color:#35a5ec;stop-opacity:1"
         offset="0"
         id="stop15388" />
      <stop
         style="stop-color:#2681da;stop-opacity:1"
         offset="1"
         id="stop15390" />
    </linearGradient>
    <radialGradient
       cx="373.08163"
       cy="123.36477"
       r="184.27052"
       fx="373.08163"
       fy="123.36477"
       id="radialGradient15392"
       xlink:href="#linearGradient15386"
       gradientUnits="userSpaceOnUse"
       gradientTransform="matrix(1,0,0,0.863204,0,16.87579)" />
    <radialGradient
       cx="373.08163"
       cy="123.36477"
       r="184.27052"
       fx="373.08163"
       fy="123.36477"
       id="radialGradient1982"
       xlink:href="#linearGradient15386"
       gradientUnits="userSpaceOnUse"
       gradientTransform="matrix(1,0,0,0.863204,0,16.87579)" />
    <clipPath
       id="clipPath8805"
       clipPathUnits="userSpaceOnUse">
      <path
         id="path8807"
         d="m 371.781,640.386 19.987,0 0,-48.074 -19.987,0 0,48.074 z"
         inkscape:connector-curvature="0" />
    </clipPath>
    <linearGradient
       y2="882.12744"
       x2="320.48227"
       y1="952.46429"
       x1="299.17374"
       gradientTransform="matrix(0.8783493,0,0,0.8783493,218.71638,-432.34392)"
       gradientUnits="userSpaceOnUse"
       id="linearGradient3250"
       xlink:href="#linearGradient3536"
       inkscape:collect="always" />
    <radialGradient
       r="245.83293"
       fy="207.49344"
       fx="317.61365"
       cy="207.49344"
       cx="317.61365"
       gradientTransform="matrix(0.8383257,0,0,0.8383257,211.22283,370.35026)"
       gradientUnits="userSpaceOnUse"
       id="radialGradient3248"
       xlink:href="#linearGradient3423"
       inkscape:collect="always" />
    <radialGradient
       r="225.0625"
       fy="1062.9181"
       fx="311.42657"
       cy="1062.9181"
       cx="311.42657"
       gradientTransform="matrix(1,0,0,1.0000694,167.18189,-512.69731)"
       gradientUnits="userSpaceOnUse"
       id="radialGradient3245"
       xlink:href="#linearGradient3413"
       inkscape:collect="always" />
    <linearGradient
       y2="1143.9006"
       x2="468.47543"
       y1="1121.9573"
       x1="350.87286"
       gradientTransform="matrix(0.9741024,0,0,0.9741024,179.46599,-490.16078)"
       gradientUnits="userSpaceOnUse"
       id="linearGradient3242"
       xlink:href="#linearGradient3520"
       inkscape:collect="always" />
    <linearGradient
       y2="1026.626"
       x2="125.4752"
       y1="1070.5031"
       x1="237.34625"
       gradientTransform="matrix(0.9748046,0,0,0.9748046,173.33769,-492.30712)"
       gradientUnits="userSpaceOnUse"
       id="linearGradient3239"
       xlink:href="#linearGradient3528"
       inkscape:collect="always" />
    <radialGradient
       r="114.36129"
       fy="470.03119"
       fx="253.14085"
       cy="470.03119"
       cx="253.14085"
       gradientTransform="matrix(1,0,0,0.1971116,0,377.3826)"
       gradientUnits="userSpaceOnUse"
       id="radialGradient3172"
       xlink:href="#linearGradient3100"
       inkscape:collect="always" />
    <linearGradient
       id="linearGradient3536">
      <stop
         id="stop3538"
         offset="0"
         style="stop-color:#333333;stop-opacity:1;" />
      <stop
         id="stop3540"
         offset="1"
         style="stop-color:#000000;stop-opacity:0;" />
    </linearGradient>
    <linearGradient
       id="linearGradient3528"
       inkscape:collect="always">
      <stop
         id="stop3530"
         offset="0"
         style="stop-color:#000000;stop-opacity:1;" />
      <stop
         id="stop3532"
         offset="1"
         style="stop-color:#000000;stop-opacity:0;" />
    </linearGradient>
    <linearGradient
       id="linearGradient3520"
       inkscape:collect="always">
      <stop
         id="stop3522"
         offset="0"
         style="stop-color:#000000;stop-opacity:1;" />
      <stop
         id="stop3524"
         offset="1"
         style="stop-color:#000000;stop-opacity:0;" />
    </linearGradient>
    <linearGradient
       id="linearGradient3413">
      <stop
         id="stop3415"
         offset="0"
         style="stop-color:#ffffff;stop-opacity:1;" />
      <stop
         style="stop-color:#ffffff;stop-opacity:1;"
         offset="0.47019866"
         id="stop3512" />
      <stop
         id="stop3417"
         offset="1"
         style="stop-color:#d6d6d6;stop-opacity:1;" />
    </linearGradient>
    <linearGradient
       id="linearGradient3423">
      <stop
         id="stop3425"
         offset="0"
         style="stop-color:#6a6a6a;stop-opacity:1;" />
      <stop
         id="stop3427"
         offset="1"
         style="stop-color:#000000;stop-opacity:1;" />
    </linearGradient>
    <linearGradient
       id="linearGradient3100"
       inkscape:collect="always">
      <stop
         id="stop3102"
         offset="0"
         style="stop-color:#333333;stop-opacity:1;" />
      <stop
         id="stop3104"
         offset="1"
         style="stop-color:#333333;stop-opacity:0;" />
    </linearGradient>
  </defs>
  <g
     id="layer1">
    <path
       d="M 13.92813,225.2724 C 10.24285,220.25206 6.1536404,211.33959 4.0236304,203.68554 C -2.7765296,179.24947 -0.74162961,143.64772 8.4992303,125.38236 C 11.11538,120.21132 14.29481,115.2433 15.78192,114.00279 C 16.9557,113.02366 34.17746,112.48967 34.17746,113.4324 C 34.17746,113.6658 33.23724,115.7122 32.08807,117.97997 C 23.4099,135.10551 19.01597,158.54843 20.58447,179.35514 C 21.87266,196.44335 25.86455,211.9391 32.19855,224.43864 C 33.28696,226.5865 34.17746,228.53478 34.17746,228.76818 C 34.17746,229.00157 30.26883,229.19252 25.49161,229.19252 L 16.80576,229.19252 L 13.92813,225.2724 z M 571.33162,228.59409 C 571.33162,228.26495 573.08682,223.85396 575.23212,218.79189 C 582.54212,201.54275 585.39242,185.63252 584.52662,166.91134 C 583.49542,144.61234 580.29592,132.26855 570.70982,113.6049 C 570.54122,113.27664 574.47772,113.00806 579.45752,113.00806 L 588.51182,113.00806 L 591.36772,116.78803 C 597.12722,124.41132 601.11562,135.00291 603.57902,149.21623 C 605.22952,158.73936 605.46542,179.53812 604.03032,189.00543 C 601.66002,204.64263 595.83372,220.31094 590.14722,226.34042 L 587.45732,229.19252 L 579.39452,229.19252 C 574.95992,229.19252 571.33162,228.92323 571.33162,228.59409 z "
       style="fill:url(#linearGradient9177);fill-opacity:1"
       id="path6685" />
    <path
       d="M 63.89303,248.54379 C 60.75998,248.22488 60.3695,247.88042 56.56775,242.0818 C 51.58323,234.47917 48.5847,227.91277 45.4127,217.65365 C 36.67281,189.3864 37.00097,150.54946 46.21286,122.95708 C 49.02648,114.52945 55.45346,101.90924 59.0745,97.70158 L 61.632,94.72974 L 72.22246,94.63107 C 78.04721,94.57681 82.99521,94.71468 83.218,94.93748 C 83.44078,95.16027 82.7527,97.07915 81.68892,99.20166 C 76.56583,109.42349 72.02762,126.62818 69.55189,145.21396 C 68.13225,155.87163 67.89474,185.95568 69.14649,196.56538 C 70.65596,209.35941 73.84122,223.47718 78.01078,235.85386 C 80.20349,242.36253 81.77263,247.91313 81.49778,248.18852 C 80.90754,248.77993 68.6442,249.02741 63.89303,248.54379 z M 524.18142,248.53856 C 522.34952,248.05983 522.38282,247.82056 525.20392,241.19113 C 528.75002,232.85788 532.90282,216.92661 534.85302,204.17468 C 537.22082,188.69268 537.44222,155.19305 535.26362,142.05417 C 532.67682,126.45343 527.74592,108.63986 523.87162,100.8988 C 520.70462,94.57091 520.50652,94.70502 533.01872,94.70502 L 544.04442,94.70502 L 547.24242,99.28078 C 554.52492,109.70047 560.39642,124.7837 563.42852,140.8605 C 565.86202,153.76344 566.46772,181.12889 564.61422,194.4305 C 561.88952,213.98497 556.46192,230.1648 548.75482,241.7084 C 544.70332,247.77648 544.55052,247.90342 540.67012,248.42057 C 536.19522,249.01697 526.28352,249.0879 524.18142,248.53856 z "
       style="fill:url(#linearGradient7375);fill-opacity:1"
       id="path6683" />
    <path
       d="M 493.16392,79.11398 C 504.56742,92.1019 512.65102,113.29461 516.56412,140.4626 C 517.94432,150.04512 517.93122,184.06497 516.54312,194.9738 C 515.03062,206.86096 512.02462,219.93651 508.36342,230.55439 C 504.64402,241.34105 501.92542,246.97838 495.87642,256.44812 L 491.42852,263.41123 L 475.60392,263.41123 C 466.90042,263.41123 459.90082,263.14265 460.04922,262.81439 C 460.19762,262.48613 461.26232,260.42704 462.41512,258.23863 C 472.12272,239.81102 480.52202,212.12519 483.02962,190.289 C 484.40122,178.34555 483.59832,151.71474 481.52172,140.26963 C 478.16012,121.74322 473.30092,106.02384 465.55532,88.61946 L 460.11812,76.40199 L 475.45042,76.40199 L 490.78272,76.40199 L 493.16392,79.11398 z M 145.57734,77.21763 C 145.57734,77.66624 144.27411,80.62059 142.68125,83.78285 C 133.8738,101.26815 126.42266,125.12735 123.68992,144.59479 C 121.97147,156.83664 121.92732,186.85344 123.6129,196.96326 C 126.89318,216.63787 132.31666,234.12197 140.70227,252.05559 C 143.38356,257.78985 145.57734,262.69071 145.57734,262.94638 C 145.57734,263.20204 138.79737,263.41123 130.51073,263.41123 L 115.44411,263.41123 L 112.57033,259.90415 C 90.32679,232.75884 81.27584,167.78887 93.15944,120.568 C 97.558713,103.08699 104.87906,87.75952 112.82772,79.38618 L 115.66056,76.40199 L 130.61895,76.40199 C 140.30357,76.40199 145.57734,76.68955 145.57734,77.21763 z "
       style="fill:url(#linearGradient5577);fill-opacity:1;fill-rule:evenodd"
       id="path6681" />
    <g
       transform="matrix(0.795784,0,0,0.795784,2.202877e-4,76.40201)"
       style="fill:url(#radialGradient15392);fill-opacity:1;display:inline"
       id="layer3" />
  </g>
  <g
     transform="matrix(0.69696,0,0,0.69696,-19.353471,-241.19524)"
     id="layer1-0"
     inkscape:label="Ebene 1">
    <path
       transform="matrix(1.7670311,0,0,3.2894716,-6.8918733,-770.63016)"
       d="m 366.00214,470.03119 c 0,11.62114 -50.52972,21.04193 -112.86129,21.04193 -62.33157,0 -112.86129,-9.42079 -112.86129,-21.04193 0,-11.62114 50.52972,-21.04194 112.86129,-21.04194 62.33157,0 112.86129,9.4208 112.86129,21.04194 z"
       sodipodi:ry="21.041935"
       sodipodi:rx="112.86129"
       sodipodi:cy="470.03119"
       sodipodi:cx="253.14085"
       id="path2521"
       style="fill:url(#radialGradient3172);fill-opacity:1;fill-rule:evenodd;stroke:none;stroke-width:3;marker:none;visibility:visible;display:inline;overflow:visible;enable-background:accumulate"
       sodipodi:type="arc" />
    <path
       id="path3382"
       d="m 687.14286,591.56295 c 0,124.24689 -100.83806,225.08495 -225.08495,225.08495 -124.2469,0 -225.08495,-100.83806 -225.08495,-225.08495 0,-124.2469 100.83805,-225.08495 225.08495,-225.08495 124.24689,0 225.08495,100.83805 225.08495,225.08495 z"
       style="fill:url(#radialGradient3248);fill-opacity:1;fill-rule:evenodd;stroke:none;stroke-width:5.57342529;marker:none;visibility:visible;display:inline;overflow:visible;enable-background:accumulate"
       inkscape:connector-curvature="0" />
    <path
       sodipodi:nodetypes="ccccsccccccccsccscscccccscscscccsccsccscccccscscsccscscscccsc"
       id="path3400"
       d="m 462.04847,366.48162 c -49.12805,0 -94.57643,15.78496 -131.59375,42.53125 -16.11579,19.48961 -27.40625,39 -27.40625,39 l -20.5625,7.875 c -28.55882,37.73568 -45.5,84.74822 -45.5,135.6875 0,4.75815 0.14614,9.47117 0.4375,14.15625 5.11583,9.13972 8.9375,14.96874 8.9375,14.96875 l -2.625,25.6875 c 14.70149,58.67954 52.4553,108.24261 103.0625,138.5 3.61585,2.3383 6.63613,3.7538 9.95419,5.6308 -1.76052,-1.6631 -2.30279,-2.108 -3.45419,-3.162 -13.2473,-13.7018 -24.40625,-29.7188 -24.40625,-29.7188 l 32.03125,-29.46875 c 10e-6,10e-6 20.59409,15.56507 43.71875,23.625 23.12467,8.05995 48.78125,8.62495 48.78125,8.62495 l 15.875,40.75 c 0,0 -14.02787,7.1945 -33.9375,10.7188 -3.56519,0.6311 -7.333,1.1444 -11.09375,1.5625 12.288,2.0813 24.90327,3.1875 37.78125,3.1875 52.04257,0 99.99002,-17.684 138.125,-47.375 11.92991,-15.98524 19.75001,-29.71876 19.75,-29.71875 l 17.375,-6.8125 c 30.83273,-38.2231 49.436,-86.71943 49.8125,-139.53125 -6.12407,-18.15827 -12.81249,-28.81248 -12.8125,-28.8125 0,0 1.70719,-16.58244 -0.69064,-34.84754 -0.37624,-2.86596 1.54952,-1.846 3.86731,-3.40223 -0.68742,-2.5948 -3.18496,-10.30609 -4.44499,-13.98838 -4.96028,-14.49589 -9.83936,-21.41177 -13.04418,-27.82435 6.24328,3.48764 -0.0245,-0.0189 -0.0312,-0.0312 C 621.82436,414.13136 547.46821,366.48161 462.04847,366.48162 z m 27.21875,8.5625 c 18.70387,0.25577 38.21875,6.3125 38.21875,6.3125 -10e-6,-3e-5 22.17311,8.52059 38,20.5625 15.8269,12.0419 25.3125,27.59375 25.3125,27.59375 l -40.25,27.8125 c 1e-5,-3e-5 -21.66626,-14.84249 -44.3125,-22.84375 -22.64623,-8.00125 -46.28125,-9.15625 -46.28125,-9.15625 l -11.40625,-41.53125 c -1e-5,0 17.2634,-8.11024 37,-8.71875 1.23354,-0.038 2.47183,-0.0483 3.71875,-0.0312 z m -131.53125,111.1875 c 13.82046,0.0635 25.3125,1.71875 25.3125,1.71875 l 20.8125,88.4375 -66.8125,63.625 c 0,0 -20.86317,-13.23662 -35.90625,-26.1875 -15.04308,-12.95088 -24.28125,-25.625 -24.28125,-25.625 10e-6,0 2.71584,-25.65389 8.84375,-47.71875 6.12791,-22.06487 15.6875,-40.53125 15.6875,-40.53125 10e-6,10e-6 16.51864,-9.50668 36.9375,-12.5 6.38089,-0.93542 13.12422,-1.24761 19.40625,-1.21875 z m 216.53125,63.15625 c -10e-6,0 18.83767,8.25331 34.03125,20.40625 15.19356,12.15293 26.75,28.21875 26.75,28.21875 0,0 -1.07773,22.00055 -8.34375,44.875 -7.26606,22.87442 -20.71875,46.625 -20.71875,46.625 -10e-6,-2e-5 -18.77755,6.89075 -38.59375,8.75 -19.81621,1.85925 -40.6875,-1.3125 -40.6875,-1.3125 l -10.34375,-43.28125 -10.65625,-44.5 c 0,0 14.14166,-17.05226 31.28125,-32 17.13958,-14.94775 37.28125,-27.78125 37.28125,-27.78125 z"
       style="fill:url(#radialGradient3245);fill-opacity:1;fill-rule:evenodd;stroke:none;stroke-width:5.10303545;marker:none;visibility:visible;display:inline;overflow:visible;enable-background:accumulate"
       inkscape:connector-curvature="0" />
    <path
       style="fill:none;stroke:url(#linearGradient3242);stroke-width:4.87051201;stroke-linecap:butt;stroke-linejoin:round;stroke-miterlimit:4;stroke-opacity:1;stroke-dashoffset:0;marker:none;visibility:visible;display:inline;overflow:visible;enable-background:accumulate"
       d="m 633.37377,598.67637 c 0,0 -1.05853,21.44345 -8.13637,43.7255 -7.07787,22.28204 -20.17505,45.40273 -20.17505,45.40273 0,0 -18.2965,6.72426 -37.5995,8.53537 -19.30303,1.81108 -39.61253,-1.29098 -39.61253,-1.29098 L 517.76194,652.89888 507.3905,609.56607 c 0,0 13.77207,-16.63224 30.46778,-31.19286 16.6957,-14.56064 36.31506,-27.04965 36.31506,-27.04965 0,0 18.34722,8.05197 33.14732,19.89019 14.80012,11.8382 26.05311,27.46262 26.05311,27.46262 z"
       id="path3514"
       sodipodi:nodetypes="cscscccscsc"
       inkscape:connector-curvature="0" />
    <path
       style="fill:none;stroke:url(#linearGradient3239);stroke-width:4.87402344;stroke-linecap:butt;stroke-linejoin:round;stroke-miterlimit:4;stroke-opacity:1;stroke-dashoffset:0;marker:none;visibility:visible;display:inline;overflow:visible;enable-background:accumulate"
       d="m 337.13219,638.06303 c 0,0 -20.33709,-12.90572 -35.00115,-25.5303 -14.66406,-12.62458 -23.6551,-24.96801 -23.6551,-24.96801 0,0 2.63677,-24.99641 8.61028,-46.50533 5.97351,-21.50895 15.28378,-39.5304 15.28378,-39.5304 0,0 16.09843,-9.25504 36.00283,-12.17294 19.9044,-2.91792 43.61477,0.50133 43.61477,0.50133 l 20.2793,86.21081 -65.13471,61.99484 z"
       id="path3516"
       sodipodi:nodetypes="cscscsccc"
       inkscape:connector-curvature="0" />
    <path
       style="fill:none;stroke:url(#linearGradient3250);stroke-width:5.01581049;stroke-linecap:butt;stroke-linejoin:miter;stroke-miterlimit:4;stroke-opacity:1;stroke-dashoffset:0;marker:none;visibility:visible;display:inline;overflow:visible;enable-background:accumulate"
       d="m 526.54287,385.59247 c 0,0 19.46417,7.49626 33.36569,18.07324 13.90152,10.57698 22.24039,24.23473 22.24039,24.23473 l -35.3569,24.43107 c 0,0 -19.03147,-13.05403 -38.92281,-20.08194 -19.89128,-7.02791 -47.71344,-9.79746 -47.71344,-9.79746 l -9.3194,-36.84304 c 0,0 19.39501,-6.76894 36.73059,-7.30338 17.33567,-0.53453 38.97588,7.28678 38.97588,7.28678 z"
       id="path3518"
       sodipodi:nodetypes="csccscczc"
       inkscape:connector-curvature="0" />
    <path
       sodipodi:nodetypes="cc"
       style="fill:none;stroke:#666666;stroke-width:1px;stroke-linecap:butt;stroke-linejoin:miter;stroke-opacity:1"
       d="m 382.00558,489.15386 c 0,0 36.18673,-48.08059 78.43673,-64.33059"
       id="path3479"
       inkscape:connector-curvature="0" />
    <path
       id="path3506"
       d="m 552.77779,456.09916 c 0,0 26.98483,42.92633 23.48483,91.92633"
       style="fill:none;stroke:#ececec;stroke-width:3;stroke-linecap:butt;stroke-linejoin:miter;stroke-miterlimit:4;stroke-opacity:1;stroke-dasharray:none"
       sodipodi:nodetypes="cs"
       inkscape:connector-curvature="0" />
    <path
       sodipodi:nodetypes="cs"
       style="fill:none;stroke:#666666;stroke-width:1px;stroke-linecap:butt;stroke-linejoin:miter;stroke-opacity:1"
       d="m 550.3743,456.61356 c 0,0 27.57582,44.37608 24.07582,93.37608"
       id="path3481"
       inkscape:connector-curvature="0" />
    <path
       sodipodi:nodetypes="cs"
       style="fill:none;stroke:#666666;stroke-width:1px;stroke-linecap:butt;stroke-linejoin:miter;stroke-opacity:1"
       d="m 587.79847,429.25005 c 0,0 59.78332,23.59995 86.03332,98.34995"
       id="path3483"
       inkscape:connector-curvature="0" />
    <path
       sodipodi:nodetypes="cc"
       style="fill:none;stroke:#666666;stroke-width:1px;stroke-linecap:butt;stroke-linejoin:miter;stroke-opacity:1"
       d="m 635.41698,597.88856 c 0,0 21.04441,-1.63477 39.42918,-32.74745"
       id="path3485"
       inkscape:connector-curvature="0" />
    <path
       sodipodi:nodetypes="cc"
       style="fill:none;stroke:#666666;stroke-width:1px;stroke-linecap:butt;stroke-linejoin:miter;stroke-opacity:1"
       d="m 620.39371,739.32037 c 0,0 2.92081,-18.12891 -14.52125,-50.95295"
       id="path3487"
       inkscape:connector-curvature="0" />
    <path
       sodipodi:nodetypes="cc"
       style="fill:none;stroke:#666666;stroke-width:1px;stroke-linecap:butt;stroke-linejoin:miter;stroke-opacity:1"
       d="m 453.66772,760.93427 c 0,0 32.35014,-8.57367 73.36233,-65.14227"
       id="path3489"
       inkscape:connector-curvature="0" />
    <path
       sodipodi:nodetypes="cc"
       style="fill:none;stroke:#666666;stroke-width:1px;stroke-linecap:butt;stroke-linejoin:miter;stroke-opacity:1"
       d="m 336.81833,639.22348 c 0,0 -1.94454,50.38132 23.15775,89.97932"
       id="path3491"
       inkscape:connector-curvature="0" />
    <path
       sodipodi:nodetypes="cc"
       style="fill:none;stroke:#666666;stroke-width:1px;stroke-linecap:butt;stroke-linejoin:miter;stroke-opacity:1"
       d="m 328.87631,757.90465 c 0,0 -7.42957,0.0924 -35.54505,-16.85775"
       id="path3493"
       inkscape:connector-curvature="0" />
    <path
       sodipodi:nodetypes="cc"
       style="fill:none;stroke:#666666;stroke-width:1px;stroke-linecap:butt;stroke-linejoin:miter;stroke-opacity:1"
       d="m 277.33297,588.13499 c 0,0 -20.14855,8.46346 -31.00149,31.91127"
       id="path3495"
       inkscape:connector-curvature="0" />
    <path
       sodipodi:nodetypes="cc"
       style="fill:none;stroke:#666666;stroke-width:1px;stroke-linecap:butt;stroke-linejoin:miter;stroke-opacity:1"
       d="m 302.69795,448.248 c 0,0 -7.23157,27.91231 -0.94794,51.36314"
       id="path3497"
       inkscape:connector-curvature="0" />
    <path
       sodipodi:nodetypes="cs"
       style="fill:none;stroke:#666666;stroke-width:1px;stroke-linecap:butt;stroke-linejoin:miter;stroke-opacity:1"
       d="m 326.91884,412.59576 c 0,0 60.05418,-50.89505 121.21891,-28.26764"
       id="path3499"
       inkscape:connector-curvature="0" />
    <path
       style="fill:none;stroke:#666666;stroke-width:1px;stroke-linecap:butt;stroke-linejoin:miter;stroke-opacity:1"
       d="m 469.14956,801.21746 c 0,0 52.38635,13.45104 133.18737,-34.23303"
       id="path3501"
       sodipodi:nodetypes="cs"
       inkscape:connector-curvature="0" />
    <path
       id="path3504"
       d="m 382.20012,485.5451 c 0,0 30.09054,-41.4415 74.34054,-61.3165"
       style="fill:none;stroke:#f2f2f2;stroke-width:3;stroke-linecap:square;stroke-linejoin:miter;stroke-miterlimit:4;stroke-opacity:1;stroke-dasharray:none"
       sodipodi:nodetypes="cc"
       inkscape:connector-curvature="0" />
    <path
       id="path3508"
       d="m 454.49019,762.66727 c 0,0 30.8224,-5.9461 71.83459,-62.51467"
       style="fill:none;stroke:#ffffff;stroke-width:3;stroke-linecap:butt;stroke-linejoin:miter;stroke-miterlimit:4;stroke-opacity:1;stroke-dasharray:none"
       sodipodi:nodetypes="cc"
       inkscape:connector-curvature="0" />
    <path
       id="path3510"
       d="m 334.79244,640.34296 c 0,0 -1.94454,50.39572 23.15775,89.99372"
       style="fill:none;stroke:#ffffff;stroke-width:3;stroke-linecap:butt;stroke-linejoin:miter;stroke-miterlimit:4;stroke-opacity:1;stroke-dasharray:none"
       sodipodi:nodetypes="cc"
       inkscape:connector-curvature="0" />
    <path
       sodipodi:nodetypes="cc"
       id="path2453"
       d="m 404.34702,576.55614 c 0,0 26.33973,6.18718 101.29305,32.70369"
       style="fill:none;stroke:#999999;stroke-width:1px;stroke-linecap:butt;stroke-linejoin:miter;stroke-miterlimit:4;stroke-opacity:1;stroke-dasharray:none;stroke-dashoffset:0;marker:none;visibility:visible;display:inline;overflow:visible;enable-background:accumulate"
       inkscape:connector-curvature="0" />
    <path
       style="fill:none;stroke:#ececec;stroke-width:1px;stroke-linecap:butt;stroke-linejoin:miter;stroke-miterlimit:4;stroke-opacity:1;stroke-dasharray:none;stroke-dashoffset:0;marker:none;visibility:visible;display:inline;overflow:visible;enable-background:accumulate"
       d="m 404.34702,575.28087 c 0,0 26.33973,6.18718 101.29305,32.70369"
       id="path3260"
       sodipodi:nodetypes="cc"
       inkscape:connector-curvature="0" />
  </g>
</svg>
